<svg width="105" height="30" viewBox="0 0 105 30" fill="none" xmlns="http://www.w3.org/2000/svg">
<path d="M103.975 26.5406C103.975 28.1393 102.653 29.4343 101.018 29.4343H4.24366C2.60927 29.4343 1.28264 28.1393 1.28264 26.5406V3.46393C1.28264 1.86595 2.60927 0.566406 4.24366 0.566406H101.017C102.653 0.566406 103.974 1.86595 103.974 3.46393L103.975 26.5406Z" fill="black"/>
<path d="M100.705 0.600941C102.486 0.600941 103.935 2.01375 103.935 3.75V26.25C103.935 27.9863 102.486 29.3991 100.705 29.3991H4.55144C2.77067 29.3991 1.32163 27.9863 1.32163 26.25V3.75C1.32163 2.01375 2.77067 0.600941 4.55144 0.600941H100.705ZM100.705 3.8147e-06H4.55144C2.43701 3.8147e-06 0.705284 1.68844 0.705284 3.75V26.25C0.705284 28.3116 2.43701 30 4.55144 30H100.705C102.82 30 104.551 28.3116 104.551 26.25V3.75C104.551 1.68844 102.82 3.8147e-06 100.705 3.8147e-06Z" fill="#A6A6A6"/>
<path d="M23.8847 14.8388C23.8624 12.4216 25.9147 11.2456 26.0085 11.1908C24.8462 9.53857 23.0447 9.31282 22.4116 9.29482C20.8985 9.13957 19.4309 10.1776 18.6601 10.1776C17.8739 10.1776 16.687 9.30982 15.4078 9.33532C13.7616 9.36007 12.2216 10.2893 11.377 11.7323C9.63393 14.6746 10.9339 18.9983 12.6039 21.3766C13.4393 22.5413 14.4155 23.8418 15.6932 23.7961C16.9432 23.7458 17.4101 23.0191 18.9185 23.0191C20.4132 23.0191 20.8516 23.7961 22.1547 23.7668C23.4962 23.7458 24.3409 22.5968 25.147 21.4216C26.1124 20.0866 26.5001 18.7718 26.5155 18.7043C26.4839 18.6938 23.9101 17.7361 23.8847 14.8388Z" fill="white"/>
<path d="M21.4232 7.73032C22.0955 6.91057 22.5555 5.79532 22.4278 4.66357C21.4547 4.70557 20.2378 5.31982 19.537 6.12157C18.917 6.82807 18.3632 7.98607 18.5062 9.07507C19.5993 9.15457 20.7216 8.53732 21.4232 7.73032Z" fill="white"/>
<path d="M41.9687 23.628H40.2218L39.2648 20.6962H35.9387L35.0271 23.628H33.3264L36.6218 13.647H38.6571L41.9687 23.628ZM38.9764 19.4662L38.111 16.86C38.0195 16.5937 37.8479 15.9667 37.5948 14.9797H37.5641C37.4633 15.4042 37.301 16.0312 37.0779 16.86L36.2279 19.4662H38.9764Z" fill="white"/>
<path d="M50.4429 19.941C50.4429 21.165 50.1036 22.1325 49.4252 22.8427C48.8175 23.475 48.0629 23.7907 47.1621 23.7907C46.1898 23.7907 45.4913 23.4502 45.0659 22.7692H45.0352V26.5605H43.3952V18.8002C43.3952 18.0307 43.3744 17.241 43.3344 16.431H44.7767L44.8682 17.5717H44.899C45.4459 16.7122 46.2759 16.2832 47.3898 16.2832C48.2606 16.2832 48.9875 16.6185 49.569 17.2897C50.1521 17.9617 50.4429 18.8452 50.4429 19.941ZM48.7721 19.9995C48.7721 19.299 48.6106 18.7215 48.2859 18.267C47.9313 17.793 47.4552 17.556 46.8582 17.556C46.4536 17.556 46.0859 17.688 45.7575 17.9482C45.4282 18.2107 45.2129 18.5535 45.1121 18.978C45.0613 19.176 45.0359 19.338 45.0359 19.4655V20.6655C45.0359 21.189 45.2006 21.6307 45.5298 21.9915C45.859 22.3522 46.2867 22.5322 46.8129 22.5322C47.4306 22.5322 47.9113 22.2997 48.2552 21.8362C48.5998 21.372 48.7721 20.76 48.7721 19.9995Z" fill="white"/>
<path d="M58.9323 19.941C58.9323 21.165 58.5931 22.1325 57.9139 22.8427C57.3069 23.475 56.5523 23.7907 55.6516 23.7907C54.6792 23.7907 53.9808 23.4502 53.5562 22.7692H53.5254V26.5605H51.8854V18.8002C51.8854 18.0307 51.8646 17.241 51.8246 16.431H53.2669L53.3585 17.5717H53.3892C53.9354 16.7122 54.7654 16.2832 55.88 16.2832C56.75 16.2832 57.4769 16.6185 58.06 17.2897C58.6408 17.9617 58.9323 18.8452 58.9323 19.941ZM57.2616 19.9995C57.2616 19.299 57.0992 18.7215 56.7746 18.267C56.42 17.793 55.9454 17.556 55.3477 17.556C54.9423 17.556 54.5754 17.688 54.2462 17.9482C53.9169 18.2107 53.7023 18.5535 53.6016 18.978C53.5516 19.176 53.5254 19.338 53.5254 19.4655V20.6655C53.5254 21.189 53.69 21.6307 54.0177 21.9915C54.3469 22.3515 54.7746 22.5322 55.3023 22.5322C55.92 22.5322 56.4008 22.2997 56.7446 21.8362C57.0893 21.372 57.2616 20.76 57.2616 19.9995Z" fill="white"/>
<path d="M68.4262 20.8287C68.4262 21.6777 68.1239 22.3685 67.5169 22.9017C66.85 23.4845 65.9216 23.7755 64.7285 23.7755C63.6269 23.7755 62.7439 23.5685 62.0754 23.1537L62.4554 21.821C63.1754 22.2455 63.9654 22.4585 64.8262 22.4585C65.4439 22.4585 65.9246 22.322 66.27 22.0505C66.6139 21.779 66.7854 21.4145 66.7854 20.96C66.7854 20.555 66.6439 20.2137 66.36 19.937C66.0777 19.6602 65.6062 19.403 64.9477 19.1652C63.1554 18.5135 62.26 17.5587 62.26 16.3032C62.26 15.4827 62.5739 14.81 63.2023 14.2865C63.8285 13.7622 64.6639 13.5005 65.7085 13.5005C66.64 13.5005 67.4139 13.6587 68.0316 13.9745L67.6216 15.278C67.0446 14.972 66.3923 14.819 65.6623 14.819C65.0854 14.819 64.6346 14.9577 64.3116 15.2337C64.0385 15.4805 63.9016 15.7812 63.9016 16.1375C63.9016 16.532 64.0577 16.8582 64.3716 17.1147C64.6446 17.3517 65.1408 17.6082 65.8608 17.885C66.7416 18.2307 67.3885 18.635 67.8046 19.0985C68.2193 19.5605 68.4262 20.1387 68.4262 20.8287Z" fill="white"/>
<path d="M73.8483 17.6309H72.0406V21.1252C72.0406 22.0139 72.3591 22.4579 72.9976 22.4579C73.2906 22.4579 73.5337 22.4332 73.726 22.3837L73.7714 23.5979C73.4483 23.7157 73.023 23.7749 72.496 23.7749C71.8483 23.7749 71.3422 23.5822 70.9768 23.1974C70.613 22.8119 70.4299 22.1654 70.4299 21.2572V17.6294H69.353V16.4294H70.4299V15.1117L72.0406 14.6377V16.4294H73.8483V17.6309Z" fill="white"/>
<path d="M82.0038 19.9699C82.0038 21.0762 81.6792 21.9844 81.0315 22.6947C80.3523 23.4259 79.4508 23.7904 78.3269 23.7904C77.2439 23.7904 76.3815 23.4402 75.7385 22.7397C75.0954 22.0392 74.7738 21.1549 74.7738 20.0892C74.7738 18.9739 75.1046 18.0604 75.7685 17.3502C76.4308 16.6392 77.3246 16.2837 78.4485 16.2837C79.5315 16.2837 80.4031 16.6339 81.0608 17.3352C81.69 18.0154 82.0038 18.8937 82.0038 19.9699ZM80.3023 20.0217C80.3023 19.3579 80.1569 18.7887 79.8623 18.3139C79.5185 17.7394 79.0269 17.4529 78.39 17.4529C77.7308 17.4529 77.23 17.7402 76.8862 18.3139C76.5915 18.7894 76.4462 19.3677 76.4462 20.0517C76.4462 20.7154 76.5915 21.2847 76.8862 21.7587C77.2408 22.3332 77.7362 22.6197 78.3754 22.6197C79.0015 22.6197 79.4931 22.3272 79.8477 21.7437C80.15 21.2599 80.3023 20.6847 80.3023 20.0217Z" fill="white"/>
<path d="M87.3354 17.8372C87.1731 17.808 87 17.793 86.8185 17.793C86.2416 17.793 85.7954 18.0052 85.4815 18.4305C85.2085 18.8055 85.0715 19.2795 85.0715 19.8517V23.628H83.4323L83.4477 18.6975C83.4477 17.868 83.4269 17.1127 83.3862 16.4317H84.8146L84.8746 17.8087H84.92C85.0931 17.3355 85.3662 16.9545 85.74 16.6687C86.1054 16.4115 86.5 16.2832 86.9254 16.2832C87.0769 16.2832 87.2139 16.2937 87.3354 16.3125V17.8372Z" fill="white"/>
<path d="M94.6698 19.6888C94.6698 19.9753 94.6506 20.2168 94.6098 20.414H89.6898C89.709 21.125 89.9467 21.6688 90.4036 22.0438C90.8182 22.379 91.3544 22.547 92.0129 22.547C92.7413 22.547 93.4059 22.4338 94.0036 22.2065L94.2606 23.3165C93.5621 23.6135 92.7375 23.7613 91.7859 23.7613C90.6413 23.7613 89.7429 23.4328 89.089 22.7765C88.4367 22.1203 88.1098 21.239 88.1098 20.1335C88.1098 19.0483 88.4136 18.1445 89.0221 17.4238C89.659 16.6543 90.5198 16.2695 91.6029 16.2695C92.6667 16.2695 93.4721 16.6543 94.019 17.4238C94.4521 18.035 94.6698 18.791 94.6698 19.6888ZM93.1059 19.274C93.1167 18.8 93.0098 18.3905 92.7875 18.0448C92.5036 17.6 92.0675 17.378 91.4806 17.378C90.9444 17.378 90.5082 17.5948 90.1752 18.0298C89.9021 18.3755 89.7398 18.7903 89.6898 19.2733H93.1059V19.274Z" fill="white"/>
<path d="M38.4372 7.50604C38.4372 8.38879 38.1657 9.05329 37.6234 9.49954C37.121 9.91129 36.4072 10.1175 35.4826 10.1175C35.0241 10.1175 34.6318 10.098 34.3034 10.059V5.23579C34.7318 5.16829 35.1934 5.13379 35.6918 5.13379C36.5726 5.13379 37.2364 5.32054 37.6841 5.69404C38.1857 6.11629 38.4372 6.72004 38.4372 7.50604ZM37.5872 7.52779C37.5872 6.95554 37.4318 6.51679 37.121 6.21079C36.8103 5.90554 36.3564 5.75254 35.7587 5.75254C35.5049 5.75254 35.2887 5.76904 35.1095 5.80354V9.47029C35.2087 9.48529 35.3903 9.49204 35.6541 9.49204C36.271 9.49204 36.7472 9.32479 37.0826 8.99029C37.418 8.65579 37.5872 8.16829 37.5872 7.52779Z" fill="white"/>
<path d="M42.9438 8.2773C42.9438 8.82105 42.7845 9.26655 42.4661 9.61605C42.1322 9.9753 41.6899 10.1545 41.1376 10.1545C40.6053 10.1545 40.1815 9.9828 39.8653 9.6378C39.5499 9.29355 39.3922 8.8593 39.3922 8.3358C39.3922 7.7883 39.5545 7.33905 39.8807 6.9903C40.2068 6.64155 40.6453 6.4668 41.1976 6.4668C41.7299 6.4668 42.1576 6.63855 42.4815 6.9828C42.7891 7.3173 42.9438 7.7493 42.9438 8.2773ZM42.1076 8.3028C42.1076 7.97655 42.0353 7.6968 41.8915 7.46355C41.7222 7.18155 41.4815 7.04055 41.1684 7.04055C40.8445 7.04055 40.5984 7.18155 40.4291 7.46355C40.2845 7.6968 40.213 7.98105 40.213 8.31705C40.213 8.6433 40.2853 8.92305 40.4291 9.1563C40.6038 9.4383 40.8468 9.5793 41.1607 9.5793C41.4684 9.5793 41.7099 9.43605 41.8838 9.1488C42.033 8.91105 42.1076 8.62905 42.1076 8.3028Z" fill="white"/>
<path d="M48.9869 6.53809L47.8523 10.0736H47.1138L46.6438 8.53834C46.5246 8.15509 46.4277 7.77409 46.3523 7.39609H46.3377C46.2677 7.78459 46.1707 8.16484 46.0461 8.53834L45.5469 10.0736H44.8L43.733 6.53809H44.5615L44.9715 8.21884C45.0707 8.61634 45.1523 8.99509 45.2177 9.35359H45.2323C45.2923 9.05809 45.3915 8.68159 45.5315 8.22634L46.0461 6.53884H46.703L47.1961 8.19034C47.3153 8.59309 47.4123 8.98084 47.4869 9.35434H47.5092C47.5638 8.99059 47.6461 8.60284 47.7553 8.19034L48.1953 6.53884H48.9869V6.53809Z" fill="white"/>
<path d="M53.1654 10.0741H52.3593V8.04911C52.3593 7.42511 52.1162 7.11311 51.6285 7.11311C51.3892 7.11311 51.1962 7.19861 51.0462 7.37036C50.8977 7.54211 50.8223 7.74461 50.8223 7.97636V10.0734H50.0162V7.54886C50.0162 7.23836 50.0062 6.90161 49.9869 6.53711H50.6954L50.7331 7.08986H50.7554C50.8493 6.91811 50.9893 6.77636 51.1731 6.66311C51.3916 6.53111 51.6362 6.46436 51.9039 6.46436C52.2423 6.46436 52.5239 6.57086 52.7477 6.78461C53.0262 7.04636 53.1654 7.43711 53.1654 7.95611V10.0741Z" fill="white"/>
<path d="M55.39 10.0738H54.5846V4.91602H55.39V10.0738Z" fill="white"/>
<path d="M60.1352 8.2773C60.1352 8.82105 59.9759 9.26655 59.6575 9.61605C59.3236 9.9753 58.8806 10.1545 58.329 10.1545C57.7959 10.1545 57.3721 9.9828 57.0567 9.6378C56.7413 9.29355 56.5836 8.8593 56.5836 8.3358C56.5836 7.7883 56.7459 7.33905 57.0721 6.9903C57.3982 6.64155 57.8367 6.4668 58.3882 6.4668C58.9213 6.4668 59.3482 6.63855 59.6729 6.9828C59.9805 7.3173 60.1352 7.7493 60.1352 8.2773ZM59.2982 8.3028C59.2982 7.97655 59.2259 7.6968 59.0821 7.46355C58.9136 7.18155 58.6721 7.04055 58.3598 7.04055C58.0352 7.04055 57.789 7.18155 57.6205 7.46355C57.4759 7.6968 57.4044 7.98105 57.4044 8.31705C57.4044 8.6433 57.4767 8.92305 57.6205 9.1563C57.7952 9.4383 58.0382 9.5793 58.3521 9.5793C58.6598 9.5793 58.9005 9.43605 59.0744 9.1488C59.2244 8.91105 59.2982 8.62905 59.2982 8.3028Z" fill="white"/>
<path d="M64.0361 10.0743H63.3123L63.2523 9.66705H63.23C62.9823 9.9918 62.6292 10.1545 62.1707 10.1545C61.8284 10.1545 61.5515 10.0473 61.3431 9.8343C61.1538 9.6408 61.0592 9.40005 61.0592 9.1143C61.0592 8.6823 61.2438 8.35305 61.6154 8.12505C61.9861 7.89705 62.5077 7.7853 63.1792 7.79055V7.72455C63.1792 7.2588 62.9284 7.0263 62.4261 7.0263C62.0684 7.0263 61.7531 7.11405 61.4808 7.28805L61.3169 6.77205C61.6538 6.5688 62.07 6.4668 62.5608 6.4668C63.5084 6.4668 63.9838 6.9543 63.9838 7.9293V9.2313C63.9838 9.58455 64.0015 9.8658 64.0361 10.0743ZM63.1992 8.8593V8.31405C62.31 8.29905 61.8654 8.5368 61.8654 9.02655C61.8654 9.21105 61.9161 9.34905 62.02 9.4413C62.1238 9.53355 62.2561 9.5793 62.4138 9.5793C62.5907 9.5793 62.7561 9.52455 62.9069 9.4158C63.0584 9.3063 63.1515 9.16755 63.1861 8.9973C63.1946 8.95905 63.1992 8.91255 63.1992 8.8593Z" fill="white"/>
<path d="M68.6172 10.0738H67.9018L67.8641 9.50601H67.8418C67.6134 9.93801 67.2241 10.154 66.6772 10.154C66.2403 10.154 65.8765 9.98676 65.588 9.65227C65.2995 9.31776 65.1557 8.88352 65.1557 8.35027C65.1557 7.77802 65.3118 7.31451 65.6257 6.96051C65.9295 6.63051 66.3018 6.46552 66.7449 6.46552C67.2318 6.46552 67.5726 6.62527 67.7664 6.94552H67.7818V4.91602H68.5888V9.12126C68.5888 9.46551 68.598 9.78276 68.6172 10.0738ZM67.7818 8.58276V7.99327C67.7818 7.89127 67.7741 7.80877 67.7595 7.74577C67.7141 7.55677 67.6164 7.39777 67.468 7.26952C67.318 7.14127 67.1372 7.07677 66.9288 7.07677C66.628 7.07677 66.3926 7.19302 66.2195 7.42627C66.048 7.65951 65.9611 7.95726 65.9611 8.32101C65.9611 8.67051 66.0434 8.95401 66.2088 9.17226C66.3834 9.40476 66.6188 9.52101 66.9134 9.52101C67.178 9.52101 67.3895 9.42426 67.5503 9.23001C67.7057 9.05076 67.7818 8.83476 67.7818 8.58276Z" fill="white"/>
<path d="M75.5111 8.2773C75.5111 8.82105 75.3519 9.26655 75.0334 9.61605C74.6996 9.9753 74.2581 10.1545 73.705 10.1545C73.1735 10.1545 72.7496 9.9828 72.4327 9.6378C72.1173 9.29355 71.9596 8.8593 71.9596 8.3358C71.9596 7.7883 72.1219 7.33905 72.4481 6.9903C72.7742 6.64155 73.2127 6.4668 73.7658 6.4668C74.2973 6.4668 74.7258 6.63855 75.0488 6.9828C75.3565 7.3173 75.5111 7.7493 75.5111 8.2773ZM74.6758 8.3028C74.6758 7.97655 74.6034 7.6968 74.4596 7.46355C74.2896 7.18155 74.0496 7.04055 73.7358 7.04055C73.4127 7.04055 73.1665 7.18155 72.9965 7.46355C72.8519 7.6968 72.7804 7.98105 72.7804 8.31705C72.7804 8.6433 72.8527 8.92305 72.9965 9.1563C73.1711 9.4383 73.4142 9.5793 73.7281 9.5793C74.0358 9.5793 74.2781 9.43605 74.4519 9.1488C74.6004 8.91105 74.6758 8.62905 74.6758 8.3028Z" fill="white"/>
<path d="M79.847 10.0741H79.0417V8.04911C79.0417 7.42511 78.7986 7.11311 78.3101 7.11311C78.0709 7.11311 77.8778 7.19861 77.7286 7.37036C77.5794 7.54211 77.5047 7.74461 77.5047 7.97636V10.0734H76.6978V7.54886C76.6978 7.23836 76.6886 6.90161 76.6694 6.53711H77.377L77.4147 7.08986H77.437C77.5317 6.91811 77.6717 6.77636 77.8547 6.66311C78.074 6.53111 78.3178 6.46436 78.5863 6.46436C78.924 6.46436 79.2055 6.57086 79.4293 6.78461C79.7086 7.04636 79.847 7.43711 79.847 7.95611V10.0741Z" fill="white"/>
<path d="M85.2716 7.12745H84.3839V8.84495C84.3839 9.28145 84.5416 9.4997 84.8539 9.4997C84.9985 9.4997 85.1185 9.4877 85.2131 9.46295L85.2339 10.0592C85.0747 10.1177 84.8654 10.147 84.6077 10.147C84.2893 10.147 84.0416 10.0525 83.8623 9.86345C83.6823 9.67445 83.5931 9.35645 83.5931 8.9102V7.12745H83.0631V6.5387H83.5931V5.8907L84.3831 5.6582V6.53795H85.2708V7.12745H85.2716Z" fill="white"/>
<path d="M89.5405 10.0738H88.7336V8.06377C88.7336 7.43002 88.4905 7.11277 88.0036 7.11277C87.6297 7.11277 87.3743 7.29652 87.2343 7.66402C87.2105 7.74127 87.1966 7.83577 87.1966 7.94677V10.073H86.3912V4.91602H87.1966V7.04677H87.212C87.4659 6.65902 87.8297 6.46552 88.3013 6.46552C88.6351 6.46552 88.9113 6.57202 89.1305 6.78577C89.4036 7.05202 89.5405 7.44802 89.5405 7.97152V10.0738Z" fill="white"/>
<path d="M93.9432 8.13921C93.9432 8.28021 93.9324 8.39871 93.9132 8.49546H91.4955C91.5063 8.84496 91.6217 9.11121 91.8455 9.29571C92.0501 9.46071 92.314 9.54321 92.6371 9.54321C92.9948 9.54321 93.3209 9.48771 93.6148 9.37596L93.7409 9.92196C93.3971 10.0675 92.9924 10.1402 92.524 10.1402C91.9624 10.1402 91.5201 9.97896 91.2001 9.65646C90.8786 9.33396 90.7194 8.90121 90.7194 8.35821C90.7194 7.82496 90.8678 7.38096 91.1671 7.02696C91.4794 6.64896 91.9017 6.45996 92.4348 6.45996C92.9563 6.45996 93.3524 6.64896 93.6201 7.02696C93.8363 7.32696 93.9432 7.69821 93.9432 8.13921ZM93.174 7.93596C93.1801 7.70271 93.1271 7.50171 93.0178 7.33221C92.8778 7.11396 92.6648 7.00446 92.3763 7.00446C92.1132 7.00446 91.8986 7.11096 91.7348 7.32471C91.6009 7.49496 91.5217 7.69821 91.4955 7.93596H93.174Z" fill="white"/>
</svg>
