<svg width="61" height="60" viewBox="0 0 61 60" fill="none" xmlns="http://www.w3.org/2000/svg">
<path fill-rule="evenodd" clip-rule="evenodd" d="M30.5 60C17.1032 60 5.75736 51.2187 1.90441 39.0981L1.90878 39.1089C4.27977 39.147 6.78747 38.7192 9.07813 37.9992C11.0727 37.372 13.0014 36.4802 14.9275 35.5896L14.9275 35.5896C15.2562 35.4376 15.5848 35.2857 15.9137 35.1351C18.2533 34.0634 20.6188 33.0697 22.9836 32.0871L23.0273 32.0689C25.3977 31.084 27.7833 30.0928 30.2188 29.3818C32.5971 28.6875 35.0187 28.2849 37.4609 28.1724C42.4268 27.9439 47.2602 28.9839 52.0332 30.6035C54.6242 31.483 57.183 32.5078 59.6908 33.7007C59.7906 33.7482 59.8865 33.7973 59.9827 33.8464C60.0616 33.8867 60.1407 33.9272 60.2223 33.9669C60.2407 33.8903 60.2582 33.7987 60.2747 33.6947C58.4539 48.5202 45.8176 60 30.5 60ZM60.2747 33.6947C60.3293 33.2506 60.3741 32.8034 60.409 32.3534C60.3741 32.8732 60.3294 33.3513 60.2747 33.6947ZM60.409 32.3534C60.4572 31.6374 60.487 30.8424 60.4993 30.2111C60.4943 30.9315 60.464 31.6459 60.409 32.3534ZM60.4979 29.6372C58.6554 28.4524 56.7393 27.3202 54.8053 26.3707C50.2895 24.1535 45.4273 22.5503 40.5471 22.4677C35.4277 22.381 30.2615 23.7615 25.4621 25.9007C23.0385 26.981 20.6865 28.2762 18.3349 29.5713C16.0449 30.8323 13.7553 32.0932 11.4002 33.1552C8.77051 34.3412 6.03242 35.2611 3.23516 35.5453C2.52684 35.6174 1.7499 35.6897 1.03691 35.6797C0.684496 33.8406 0.5 31.9419 0.5 30C0.5 13.4314 13.9314 0 30.5 0C46.9474 0 60.3035 13.2358 60.4979 29.6372ZM1.04897 35.7423L1.03691 35.6797L1.03508 35.6797L1.04897 35.7423ZM1.27631 36.8101C1.22252 36.5729 1.17449 36.3412 1.13095 36.1311C1.10174 35.9901 1.07454 35.8589 1.04897 35.7423C1.11842 36.1006 1.19424 36.4565 1.27631 36.8101ZM1.45365 37.533C1.39164 37.2932 1.33251 37.0522 1.27631 36.8101C1.29177 36.8783 1.30771 36.9469 1.32415 37.0156C1.36533 37.1877 1.40915 37.362 1.45365 37.533ZM1.6263 38.1713C1.71414 38.4823 1.80688 38.7913 1.90441 39.0981C1.86646 39.0026 1.82121 38.8473 1.76196 38.6439L1.76195 38.6439L1.73821 38.5625C1.70347 38.4436 1.66567 38.3118 1.6263 38.1713ZM1.45365 37.533C1.51149 37.7553 1.57046 37.9721 1.6263 38.1713C1.56647 37.9595 1.50892 37.7467 1.45365 37.533ZM60.4979 29.6372C60.4993 29.758 60.5 29.8789 60.5 30C60.5 30.0704 60.4998 30.1408 60.4993 30.2111C60.5034 30.0002 60.5055 29.8076 60.5058 29.6423L60.4979 29.6372ZM28.7452 21.5568L28.7457 21.5567C28.7884 21.5483 28.8309 21.54 28.8731 21.532L28.8732 21.5318C28.9933 21.509 29.118 21.4892 29.2444 21.4691C29.5885 21.4143 29.9452 21.3575 30.2553 21.2337C30.814 21.0106 31.1532 20.2415 30.6342 19.7551L30.635 19.7542C27.2178 16.5603 22.743 14.523 18.1803 13.9459C16.8842 13.7824 15.577 13.7578 14.275 13.8544C13.6346 13.9019 13.2004 14.571 13.5362 15.1863C13.6656 15.4236 13.7921 15.6628 13.9187 15.9021L13.9187 15.9021C14.2636 16.5543 14.6087 17.2067 15.0133 17.8218C15.5694 18.6673 16.1952 19.4671 16.8819 20.2025C17.1995 20.5429 17.5305 20.8699 17.8733 21.1839C18.0508 21.3462 18.2313 21.5056 18.4147 21.6609C18.4414 21.6836 18.4682 21.7061 18.4951 21.7285L18.4951 21.7286L18.4952 21.7286C18.5326 21.7599 18.5701 21.7911 18.6069 21.8232L18.5675 21.8886C18.5361 21.9407 18.5093 21.9853 18.4997 22.0007C18.3508 22.2445 18.202 22.4882 18.0526 22.732C17.9031 22.9765 17.7534 23.2208 17.6038 23.4652C17.4543 23.7092 17.3048 23.9532 17.1555 24.1974C16.9293 24.5666 17.0477 25.0857 17.3758 25.3394C17.7368 25.6183 18.1627 25.5603 18.4997 25.2703L18.854 24.965L18.8608 24.9591L18.8676 24.9532C19.7192 24.2194 20.5705 23.4859 21.4217 22.7519C21.4598 22.7238 21.4967 22.6933 21.5313 22.6576C21.7124 22.5011 21.7879 22.2603 21.778 22.0201C21.7797 21.7916 21.7012 21.5642 21.5313 21.406C21.5079 21.382 21.4832 21.3597 21.4586 21.3392C21.3547 21.243 21.2504 21.1472 21.1461 21.0513L21.1461 21.0513C20.216 20.1964 19.2864 19.3419 18.5846 18.2671C18.202 17.6818 17.8686 17.0572 17.5985 16.408C17.5645 16.3259 17.5317 16.2439 17.4995 16.1607C18.8184 16.3734 20.0817 16.9945 21.2565 17.6115C22.654 18.3457 23.9952 19.19 25.2831 20.1134C25.6592 20.3835 26.0307 20.6601 26.3981 20.9425C26.4669 20.9954 26.5347 21.0508 26.6027 21.1062L26.6028 21.1063L26.6028 21.1063C26.8737 21.3272 27.1468 21.5499 27.4891 21.6281C27.9003 21.722 28.3341 21.6372 28.7452 21.5568Z" fill="#3D3D3D"/>
</svg>
