<svg width="104" height="30" viewBox="0 0 104 30" fill="none" xmlns="http://www.w3.org/2000/svg">
<path d="M99.8625 30H3.84087C1.72935 30 0 28.3116 0 26.25V3.75C0 1.68844 1.72935 0 3.84087 0H99.8625C101.974 0 103.703 1.68844 103.703 3.75V26.25C103.703 28.3116 101.974 30 99.8625 30Z" fill="black"/>
<path d="M99.8625 0.600936C101.641 0.600936 103.088 2.01375 103.088 3.75V26.25C103.088 27.9862 101.641 29.3991 99.8625 29.3991H3.84087C2.06255 29.3991 0.615499 27.9862 0.615499 26.25V3.75C0.615499 2.01375 2.06255 0.600936 3.84087 0.600936H99.8625ZM99.8625 0H3.84087C1.72935 0 0 1.68844 0 3.75V26.25C0 28.3116 1.72935 30 3.84087 30H99.8625C101.974 30 103.703 28.3116 103.703 26.25V3.75C103.703 1.68844 101.974 0 99.8625 0Z" fill="#A6A6A6"/>
<path d="M36.4275 7.68348C36.4275 8.30973 36.2355 8.81129 35.8572 9.18535C35.4222 9.62879 34.8557 9.85191 34.1614 9.85191C33.4979 9.85191 32.9314 9.62504 32.4666 9.17785C32.0009 8.7241 31.7686 8.16723 31.7686 7.50066C31.7686 6.8341 32.0009 6.27723 32.4666 5.82723C32.9314 5.37629 33.4979 5.14941 34.1614 5.14941C34.4917 5.14941 34.8067 5.21598 35.1072 5.33973C35.4068 5.46441 35.6507 5.63316 35.8274 5.84129L35.426 6.23691C35.1178 5.8816 34.6982 5.70629 34.1614 5.70629C33.6775 5.70629 33.2579 5.87129 32.9016 6.2041C32.5492 6.53785 32.3725 6.97004 32.3725 7.50066C32.3725 8.03129 32.5492 8.46722 32.9016 8.80097C33.2579 9.13004 33.6775 9.29879 34.1614 9.29879C34.6751 9.29879 35.1072 9.13004 35.4481 8.79722C35.6728 8.57691 35.8005 8.27316 35.8341 7.88504H34.1614V7.34316H36.393C36.4198 7.46035 36.4275 7.57379 36.4275 7.68348Z" fill="white" stroke="white" stroke-width="0.096" stroke-miterlimit="10"/>
<path d="M39.9669 5.80316H37.8708V7.22816H39.7605V7.77004H37.8708V9.19504H39.9669V9.74723H37.2773V5.25098H39.9669V5.80316Z" fill="white" stroke="white" stroke-width="0.096" stroke-miterlimit="10"/>
<path d="M42.4661 9.74723H41.8726V5.80316H40.5869V5.25098H43.7527V5.80316H42.4661V9.74723Z" fill="white" stroke="white" stroke-width="0.096" stroke-miterlimit="10"/>
<path d="M46.043 9.74723V5.25098H46.6354V9.74723H46.043Z" fill="white" stroke="white" stroke-width="0.096" stroke-miterlimit="10"/>
<path d="M49.2619 9.74723H48.6733V5.80316H47.3828V5.25098H50.5525V5.80316H49.2619V9.74723Z" fill="white" stroke="white" stroke-width="0.096" stroke-miterlimit="10"/>
<path d="M56.5461 9.17035C56.092 9.62504 55.5293 9.85191 54.8581 9.85191C54.183 9.85191 53.6204 9.62504 53.1662 9.17035C52.713 8.7166 52.4873 8.15973 52.4873 7.50066C52.4873 6.8416 52.713 6.28473 53.1662 5.83098C53.6204 5.37629 54.183 5.14941 54.8581 5.14941C55.5254 5.14941 56.0881 5.37629 56.5423 5.83473C56.9994 6.29223 57.225 6.84535 57.225 7.50066C57.225 8.15973 56.9994 8.7166 56.5461 9.17035ZM53.605 8.79347C53.9468 9.13004 54.3626 9.29879 54.8581 9.29879C55.3497 9.29879 55.7693 9.13004 56.1073 8.79347C56.4482 8.45691 56.621 8.02473 56.621 7.50066C56.621 6.9766 56.4482 6.54441 56.1073 6.20785C55.7693 5.87129 55.3497 5.70254 54.8581 5.70254C54.3626 5.70254 53.9468 5.87129 53.605 6.20785C53.2641 6.54441 53.0913 6.9766 53.0913 7.50066C53.0913 8.02473 53.2641 8.45691 53.605 8.79347Z" fill="white" stroke="white" stroke-width="0.096" stroke-miterlimit="10"/>
<path d="M58.0557 9.74723V5.25098H58.7758L61.0151 8.74785H61.041L61.0151 7.88348V5.25098H61.6075V9.74723H60.9891L58.6443 6.07785H58.6183L58.6443 6.94598V9.74723H58.0557Z" fill="white" stroke="white" stroke-width="0.096" stroke-miterlimit="10"/>
<path d="M52.3381 16.3139C50.5338 16.3139 49.0599 17.6545 49.0599 19.5042C49.0599 21.3389 50.5338 22.6936 52.3381 22.6936C54.1462 22.6936 55.6201 21.3389 55.6201 19.5042C55.6201 17.6545 54.1462 16.3139 52.3381 16.3139ZM52.3381 21.4373C51.3481 21.4373 50.4964 20.6395 50.4964 19.5042C50.4964 18.3539 51.3481 17.5701 52.3381 17.5701C53.328 17.5701 54.1836 18.3539 54.1836 19.5042C54.1836 20.6395 53.328 21.4373 52.3381 21.4373ZM45.1854 16.3139C43.3773 16.3139 41.9072 17.6545 41.9072 19.5042C41.9072 21.3389 43.3773 22.6936 45.1854 22.6936C46.9925 22.6936 48.4636 21.3389 48.4636 19.5042C48.4636 17.6545 46.9925 16.3139 45.1854 16.3139ZM45.1854 21.4373C44.1945 21.4373 43.3399 20.6395 43.3399 19.5042C43.3399 18.3539 44.1945 17.5701 45.1854 17.5701C46.1754 17.5701 47.0271 18.3539 47.0271 19.5042C47.0271 20.6395 46.1754 21.4373 45.1854 21.4373ZM36.6741 17.2917V18.6473H39.9897C39.8927 19.4048 39.6334 19.9617 39.2359 20.3498C38.752 20.8186 37.9982 21.3389 36.6741 21.3389C34.6336 21.3389 33.0358 19.7311 33.0358 17.7389C33.0358 15.7467 34.6336 14.1389 36.6741 14.1389C37.7773 14.1389 38.5801 14.5598 39.1725 15.1054L40.151 14.1501C39.3223 13.3776 38.22 12.7842 36.6741 12.7842C33.876 12.7842 31.5244 15.007 31.5244 17.7389C31.5244 20.4707 33.876 22.6936 36.6741 22.6936C38.1864 22.6936 39.3223 22.2098 40.2153 21.3023C41.1304 20.4089 41.4156 19.1526 41.4156 18.1382C41.4156 17.8232 41.3887 17.5336 41.3407 17.2917H36.6741ZM71.4781 18.3426C71.2082 17.6292 70.3757 16.3139 68.68 16.3139C66.9996 16.3139 65.6006 17.6067 65.6006 19.5042C65.6006 21.2911 66.9852 22.6936 68.8413 22.6936C70.3421 22.6936 71.2082 21.8001 71.5645 21.2798L70.4506 20.5551C70.079 21.0857 69.573 21.4373 68.8413 21.4373C68.1144 21.4373 67.593 21.112 67.2589 20.4707L71.6288 18.7054L71.4781 18.3426ZM67.0227 19.4048C66.9852 18.1748 68.0011 17.5448 68.729 17.5448C69.2993 17.5448 69.7833 17.8232 69.9446 18.2217L67.0227 19.4048ZM63.4708 22.4995H64.9073V13.1245H63.4708V22.4995ZM61.1183 17.0245H61.0703C60.7476 16.6514 60.1321 16.3139 59.3525 16.3139C57.7162 16.3139 56.2202 17.7164 56.2202 19.5145C56.2202 21.3023 57.7162 22.6936 59.3525 22.6936C60.1321 22.6936 60.7476 22.3532 61.0703 21.9689H61.1183V22.4264C61.1183 23.6461 60.4509 24.3014 59.3745 24.3014C58.4969 24.3014 57.9525 23.6826 57.7278 23.1623L56.4785 23.6714C56.8386 24.517 57.7921 25.5576 59.3745 25.5576C61.0588 25.5576 62.4799 24.5901 62.4799 22.2361V16.5079H61.1183V17.0245ZM59.4754 21.4373C58.4854 21.4373 57.6567 20.6282 57.6567 19.5145C57.6567 18.3904 58.4854 17.5701 59.4754 17.5701C60.4509 17.5701 61.2201 18.3904 61.2201 19.5145C61.2201 20.6282 60.4509 21.4373 59.4754 21.4373ZM78.2034 13.1245H74.7678V22.4995H76.2004V18.9473H78.2034C79.7945 18.9473 81.3548 17.8232 81.3548 16.0354C81.3548 14.2486 79.7907 13.1245 78.2034 13.1245ZM78.2409 17.6432H76.2004V14.4286H78.2409C79.3105 14.4286 79.9212 15.2957 79.9212 16.0354C79.9212 16.7611 79.3105 17.6432 78.2409 17.6432ZM87.0969 16.2961C86.0618 16.2961 84.9854 16.7423 84.5428 17.7314L85.8141 18.2517C86.0878 17.7314 86.5909 17.5626 87.1229 17.5626C87.8661 17.5626 88.6198 17.9986 88.6314 18.7682V18.8667C88.3721 18.7204 87.8171 18.5039 87.1344 18.5039C85.7651 18.5039 84.3699 19.2398 84.3699 20.6132C84.3699 21.8695 85.4915 22.6786 86.7522 22.6786C87.7163 22.6786 88.2482 22.2539 88.5824 21.7598H88.6314V22.4845H90.015V18.8882C90.015 17.2261 88.7437 16.2961 87.0969 16.2961ZM86.9241 21.4336C86.4555 21.4336 85.8026 21.2067 85.8026 20.6395C85.8026 19.9139 86.6168 19.6354 87.3216 19.6354C87.9525 19.6354 88.2482 19.7714 88.6314 19.9504C88.519 20.8186 87.7537 21.4336 86.9241 21.4336ZM95.0562 16.5014L93.4094 20.5654H93.3604L91.658 16.5014H90.113L92.671 22.1807L91.2115 25.3411H92.7085L96.6501 16.5014H95.0562ZM82.1422 22.4995H83.5787V13.1245H82.1422V22.4995Z" fill="white"/>
<path d="M8.01835 5.65414C7.7927 5.88476 7.66211 6.24382 7.66211 6.70882V23.2951C7.66211 23.7601 7.7927 24.1191 8.01835 24.3498L8.07404 24.4004L17.5936 15.1098V14.8904L8.07404 5.59976L8.01835 5.65414Z" fill="url(#paint0_linear_1_210)"/>
<path d="M20.7615 18.208L17.5918 15.1096V14.8902L20.7653 11.7918L20.8364 11.8321L24.5947 13.9199C25.6672 14.5124 25.6672 15.4874 24.5947 16.0836L20.8364 18.1677L20.7615 18.208Z" fill="url(#paint1_linear_1_210)"/>
<path d="M20.8365 18.1679L17.5919 15L8.0166 24.3497C8.37284 24.7154 8.95377 24.7594 9.6144 24.3938L20.8365 18.1679Z" fill="url(#paint2_linear_1_210)"/>
<path d="M20.8365 11.8322L9.6144 5.60625C8.95377 5.24438 8.37284 5.28844 8.0166 5.65406L17.5919 15L20.8365 11.8322Z" fill="url(#paint3_linear_1_210)"/>
<defs>
<linearGradient id="paint0_linear_1_210" x1="16.7484" y1="23.4678" x2="4.16521" y2="10.5797" gradientUnits="userSpaceOnUse">
<stop stop-color="#00A0FF"/>
<stop offset="0.0066" stop-color="#00A1FF"/>
<stop offset="0.2601" stop-color="#00BEFF"/>
<stop offset="0.5122" stop-color="#00D2FF"/>
<stop offset="0.7604" stop-color="#00DFFF"/>
<stop offset="1" stop-color="#00E3FF"/>
</linearGradient>
<linearGradient id="paint1_linear_1_210" x1="25.9913" y1="14.9988" x2="7.4039" y2="14.9988" gradientUnits="userSpaceOnUse">
<stop stop-color="#FFE000"/>
<stop offset="0.4087" stop-color="#FFBD00"/>
<stop offset="0.7754" stop-color="#FFA500"/>
<stop offset="1" stop-color="#FF9C00"/>
</linearGradient>
<linearGradient id="paint2_linear_1_210" x1="19.0722" y1="13.278" x2="2.00832" y2="-4.19934" gradientUnits="userSpaceOnUse">
<stop stop-color="#FF3A44"/>
<stop offset="1" stop-color="#C31162"/>
</linearGradient>
<linearGradient id="paint3_linear_1_210" x1="5.6063" y1="29.8679" x2="13.2261" y2="22.0635" gradientUnits="userSpaceOnUse">
<stop stop-color="#32A071"/>
<stop offset="0.0685" stop-color="#2DA771"/>
<stop offset="0.4762" stop-color="#15CF74"/>
<stop offset="0.8009" stop-color="#06E775"/>
<stop offset="1" stop-color="#00F076"/>
</linearGradient>
</defs>
</svg>
